<mxfile host="app.diagrams.net" modified="2024-04-05T05:02:51.408Z" agent="Mozilla/5.0 (Macintosh; Intel Mac OS X 10_15_7) AppleWebKit/605.1.15 (KHTML, like Gecko) Version/16.1 Safari/605.1.15" version="24.2.2" etag="6sSMR0Ws16-61XlGY-dj" type="github">
  <diagram name="หน้า-1" id="QELj2gEdvszfOdwN-XbA">
    <mxGraphModel>
      <root>
        <mxCell id="0" />
        <mxCell id="1" parent="0" />
      </root>
    </mxGraphModel>
  </diagram>
</mxfile>
